<svg width="187" height="33" viewBox="0 0 187 33" fill="none" xmlns="http://www.w3.org/2000/svg">
<path fill-rule="evenodd" clip-rule="evenodd" d="M33.1649 18.6033C32.7221 19.031 32.5209 19.6472 32.6246 20.2516L33.2935 24.1189C33.5019 25.3228 32.5375 26.3005 31.4436 26.3005C31.1553 26.3005 30.8577 26.2323 30.5694 26.0822L27.0697 24.2562C26.7959 24.114 26.4963 24.0429 26.1956 24.0429C25.8959 24.0429 25.5962 24.114 25.3224 24.2562L21.8227 26.0822C21.5345 26.2323 21.2369 26.3005 20.9486 26.3005C19.8546 26.3005 18.8902 25.3228 19.0987 24.1189L19.7675 20.2516C19.8712 19.6472 19.67 19.031 19.2273 18.6033L16.3953 15.8648C15.2817 14.7874 15.8966 12.91 17.4354 12.6878L21.3489 12.1239C21.9607 12.036 22.4895 11.6548 22.7622 11.1047L24.5126 7.58701C24.8568 6.89472 25.5267 6.54908 26.1956 6.54908C26.8654 6.54908 27.5353 6.89472 27.8796 7.58701L29.6299 11.1047C29.9026 11.6548 30.4315 12.036 31.0433 12.1239L34.9567 12.6878C36.4956 12.91 37.1105 14.7874 35.9968 15.8648L33.1649 18.6033Z" fill="white"/>
</svg>